# xmcd
#
# Track frame offsets: 
#        150
#        14439
#        35328
#        50217
#        63306
#        75195
#        90084
#        102873
#        122262
#        142251
#        153240
#        165429
#        177618
#        191007
#        201996
#        216285
#        233274
#
# Disc length: 3298 seconds
#
# Revision: 0
# Processed by: cddbd v1.5.2PL0 Copyright (c) Steve Scherf et al.
# Submitted via: ExactAudioCopy v0.99pb5
#
DISCID=d80ce011
DTITLE=De Houthakkers ('Ko De Boswachter Show') - De Houthakkers 1
DYEAR=1900
DGENRE=Pop
TTITLE0=lach 's tegen duimpie
TTITLE1=pijn
TTITLE2=stout
TTITLE3=meisjeskamp
TTITLE4=kindermenu
TTITLE5=hippopotamus
TTITLE6=spugen
TTITLE7=doe maar
TTITLE8=verlegen jongetje
TTITLE9=geen zin
TTITLE10=huiswerk
TTITLE11=ben ik dat nou
TTITLE12=alleen
TTITLE13=hallo pa
TTITLE14=kersenbonbon
TTITLE15=de mol
TTITLE16=kweeniewakmoedoen (live)
EXTD=
EXTT0=
EXTT1=
EXTT2=
EXTT3=
EXTT4=
EXTT5=
EXTT6=
EXTT7=
EXTT8=
EXTT9=
EXTT10=
EXTT11=
EXTT12=
EXTT13=
EXTT14=
EXTT15=
EXTT16=
PLAYORDER=
